<svg xmlns="http://www.w3.org/2000/svg" xmlns:xlink="http://www.w3.org/1999/xlink" viewBox="0 0 883 778.97"><defs><style>.cls-1{fill:none;}.cls-2{clip-path:url(#clip-path);}.cls-3{fill:#1a5d57;}</style><clipPath id="clip-path"><rect class="cls-1" x="5.22" y="46.15" width="883" height="768"/></clipPath></defs><g id="Layer_2" data-name="Layer 2"><g id="Layer_1-2" data-name="Layer 1"><g class="cls-2"><path class="cls-3" d="M325.37,777.55a4.64,4.64,0,0,1-6.6.08c-17-17.08-33.73-33.82-50.44-50.54q-54.88-54.9-109.83-109.74c-2.65-2.63-3.12-4.09-.13-6.87,6.71-6.26,18.08-17.61,19.62-19.52a12.36,12.36,0,0,1,1.22-1.29c.85-.78,1.89-1.83,3-1.83s1.9.69,3.16,1.95Q251.76,656.45,318.26,723c3.2,3.22,4.6,2.88,7.57-.09Q583.22,465.3,840.67,207.75c4-4,5.91-4.11,10.43,1.6a106.18,106.18,0,0,0,16.43,16.47c4.44,3.59,4.79,4.82,1.85,7.74q-35.62,35.34-71,70.91Q561.89,541,325.4,777.52Z"/></g><rect class="cls-1" width="883" height="768"/><rect class="cls-1" width="883" height="768"/></g></g></svg>